<?xml version="1.0" standalone="no"?>
<!DOCTYPE svg PUBLIC "-//W3C//DTD SVG 20010904//EN"
 "http://www.w3.org/TR/2001/REC-SVG-20010904/DTD/svg10.dtd">
<svg version="1.0" xmlns="http://www.w3.org/2000/svg"
 width="554.000000pt" height="554.000000pt" viewBox="0 0 554.000000 554.000000"
 preserveAspectRatio="xMidYMid meet">

<g transform="translate(0.000000,554.000000) scale(0.100000,-0.100000)"
fill="#000000" stroke="none">
<path d="M0 2770 l0 -2770 2770 0 2770 0 0 2770 0 2770 -2770 0 -2770 0 0
-2770z m3190 2602 c741 -124 1386 -553 1785 -1187 72 -113 192 -359 240 -490
47 -128 107 -366 131 -520 26 -169 26 -580 1 -745 -90 -573 -335 -1067 -727
-1461 -504 -506 -1134 -770 -1840 -770 -421 -1 -759 75 -1125 250 -267 128
-477 274 -689 481 -423 411 -678 910 -767 1505 -28 185 -30 520 -5 705 83 595
345 1114 772 1530 390 379 874 622 1406 705 234 36 589 35 818 -3z"/>
<path d="M2580 5143 c-645 -64 -1189 -342 -1595 -815 -524 -609 -699 -1442
-465 -2213 237 -784 884 -1397 1682 -1594 176 -44 299 -61 493 -68 1077 -38
2051 673 2344 1712 172 614 86 1277 -238 1824 -429 724 -1212 1169 -2041 1159
-80 0 -161 -3 -180 -5z m1050 -753 c413 -714 1323 -2296 1339 -2327 l12 -23
-615 0 -614 0 -140 243 c-77 133 -271 469 -431 746 -161 278 -290 510 -289
517 2 6 140 248 307 538 249 430 307 523 315 509 5 -10 57 -101 116 -203z
m-1510 83 c314 -544 825 -1429 1087 -1886 l314 -548 -252 -417 c-139 -229
-279 -463 -313 -519 -34 -56 -64 -103 -67 -103 -8 0 -15 11 -441 750 -498 863
-986 1716 -1005 1755 -16 32 -15 34 23 101 21 37 55 95 74 129 290 509 496
865 500 865 4 0 39 -57 80 -127z m-572 -1618 c137 -236 299 -517 360 -622
l111 -193 -729 0 -729 0 146 253 c80 138 243 422 362 629 119 207 219 374 223
370 3 -4 119 -200 256 -437z"/>
</g>
</svg>
